<!-- modified by Adam Ross (https://www.github.com/profile-icons/github-stats-modified), 26/05/26. -->
<svg id="portable-dark-mode-support" width="460" height="210" xmlns="http://www.w3.org/2000/svg">
<style>
svg {
  font-family: -apple-system, BlinkMacSystemFont, Segoe UI, Helvetica, Arial, sans-serif, Apple Color Emoji, Segoe UI Emoji;
  font-size: 14px;
  line-height: 21px;
}

#background {
  width: calc(100% - 10px);
  height: calc(100% - 10px);
  stroke: rgb(225, 228, 232);
  rx: 6px;
  ry: 6px;
}

foreignObject {
  width: calc(100% - 10px - 32px);
  height: calc(100% - 10px - 24px);
}

h2 {
  margin-top: 0;
  margin-bottom: 0.75em;
  line-height: 24px;
  font-size: 16px;
  font-weight: 600;
}

ul {
  list-style: none;
  padding-left: 0;
  margin-top: 0;
  margin-bottom: 0;
}

li {
  display: inline-flex;
  font-size: 12px;
  margin-right: 1ch;
  align-items: center;
  flex-wrap: nowrap;
  transform: translateX(-500%);
  animation: slideIn 2s ease-in-out forwards;
}

@keyframes slideIn {
  to {
    transform: translateX(0);
  }
}

div.ellipsis {
  height: 176px;
  overflow: hidden;
  text-overflow: ellipsis;
}

.octicon {
  margin-right: 0.5ch;
  vertical-align: top;
}

.progress {
  display: flex;
  height: 8px;
  overflow: hidden;
  border-radius: 6px;
  outline: 1px solid transparent;
  margin-bottom: 1em;
}

.progress-item {
  border-collapse: collapse;
}

.lang {
  font-weight: 600;
  margin-right: 4px;
}

@media (prefers-color-scheme: light) {
  #background {
    fill: #ffffff;
    stroke-width: 1px;
  }

  h2 {
    color: rgb(36, 41, 46);
    fill: rgb(36, 41, 46);
  }

  .octicon {
    fill: rgb(88, 96, 105);
  }

  .progress {
    background-color: rgb(225, 228, 232);
  }

  .progress-item {
    outline: 2px solid rgb(225, 228, 232);
  }

  .lang {
    color: rgb(36, 41, 46);
  }

  .percent {
    color: rgb(88, 96, 105);
  }
}

@media (prefers-color-scheme: dark) {
  #background {
    fill: #0d1117;
    stroke-width: 0.5px;
  }

  h2 {
    color: #c9d1d9;
    fill: #c9d1d9;
  }

  .octicon {
    color: #8b949e;
    fill: #8b949e;
  }

  .progress{
    background-color: rgba(110, 118, 129, 0.4);
  }

  .progress-item {
    outline: 2px solid #393f47;
  }

  .lang {
    color: #c9d1d9;
  }

  .percent {
    color: #8b949e;
  }
}
</style>
<g>
<rect x="5" y="5" id="background" />
<g>
<switch>
<foreignObject systemLanguage="en" x="21" y="17" width="406.3" height="176">
<div xmlns="http://www.w3.org/1999/xhtml" class="ellipsis">

<h2>15 Languages (by Line Changes)</h2>

<div>
<span class="progress">
<span style="
  background-color: #ec915c; 
  width: 63.532%;
" class="progress-item"></span><span style="
  background-color: #7e7eff; 
  width: 7.354%;
" class="progress-item"></span><span style="
  background-color: #ff5a03; 
  width: 6.907%;
" class="progress-item"></span><span style="
  background-color: #b07219; 
  width: 6.561%;
" class="progress-item"></span><span style="
  background-color: #663399; 
  width: 4.155%;
" class="progress-item"></span><span style="
  background-color: #3178c6; 
  width: 4.135%;
" class="progress-item"></span><span style="
  background-color: #f1e05a; 
  width: 3.121%;
" class="progress-item"></span><span style="
  background-color: #89e051; 
  width: 2.465%;
" class="progress-item"></span><span style="
  background-color: #f34b7d; 
  width: 0.539%;
" class="progress-item"></span><span style="
  background-color: #3572A5; 
  width: 0.478%;
" class="progress-item"></span><span style="
  background-color: #DA3434; 
  width: 0.325%;
" class="progress-item"></span><span style="
  background-color: #41b883; 
  width: 0.202%;
" class="progress-item"></span><span style="
  background-color: #5686a5; 
  width: 0.108%;
" class="progress-item"></span><span style="
  background-color: #fcb32c; 
  width: 0.107%;
" class="progress-item"></span><span style="
  background-color: #478CBF; 
  width: 0.010%;
" class="progress-item"></span>
</span>
</div>

<ul>

<li style="animation-delay: 150ms;">
  <svg 
      xmlns="http://www.w3.org/2000/svg" 
      class="octicon"
      style="fill: #ec915c;" 
      viewBox="0 0 16 16" 
      version="1.1" 
      width="16" 
      height="16"
  ><path 
      fill-rule="evenodd" 
      d="M8 4a4 4 0 100 8 4 4 0 000-8z"
  ></path></svg>
  <span class="lang">Zig</span>
  <span class="percent">63.53%</span>
</li>
<li style="animation-delay: 300ms;">
  <svg 
      xmlns="http://www.w3.org/2000/svg" 
      class="octicon"
      style="fill: #7e7eff;" 
      viewBox="0 0 16 16" 
      version="1.1" 
      width="16" 
      height="16"
  ><path 
      fill-rule="evenodd" 
      d="M8 4a4 4 0 100 8 4 4 0 000-8z"
  ></path></svg>
  <span class="lang">Nix</span>
  <span class="percent">7.35%</span>
</li>
<li style="animation-delay: 450ms;">
  <svg 
      xmlns="http://www.w3.org/2000/svg" 
      class="octicon"
      style="fill: #ff5a03;" 
      viewBox="0 0 16 16" 
      version="1.1" 
      width="16" 
      height="16"
  ><path 
      fill-rule="evenodd" 
      d="M8 4a4 4 0 100 8 4 4 0 000-8z"
  ></path></svg>
  <span class="lang">Astro</span>
  <span class="percent">6.91%</span>
</li>
<li style="animation-delay: 600ms;">
  <svg 
      xmlns="http://www.w3.org/2000/svg" 
      class="octicon"
      style="fill: #b07219;" 
      viewBox="0 0 16 16" 
      version="1.1" 
      width="16" 
      height="16"
  ><path 
      fill-rule="evenodd" 
      d="M8 4a4 4 0 100 8 4 4 0 000-8z"
  ></path></svg>
  <span class="lang">Java</span>
  <span class="percent">6.56%</span>
</li>
<li style="animation-delay: 750ms;">
  <svg 
      xmlns="http://www.w3.org/2000/svg" 
      class="octicon"
      style="fill: #663399;" 
      viewBox="0 0 16 16" 
      version="1.1" 
      width="16" 
      height="16"
  ><path 
      fill-rule="evenodd" 
      d="M8 4a4 4 0 100 8 4 4 0 000-8z"
  ></path></svg>
  <span class="lang">CSS</span>
  <span class="percent">4.15%</span>
</li>
<li style="animation-delay: 900ms;">
  <svg 
      xmlns="http://www.w3.org/2000/svg" 
      class="octicon"
      style="fill: #3178c6;" 
      viewBox="0 0 16 16" 
      version="1.1" 
      width="16" 
      height="16"
  ><path 
      fill-rule="evenodd" 
      d="M8 4a4 4 0 100 8 4 4 0 000-8z"
  ></path></svg>
  <span class="lang">TypeScript</span>
  <span class="percent">4.14%</span>
</li>
<li style="animation-delay: 1050ms;">
  <svg 
      xmlns="http://www.w3.org/2000/svg" 
      class="octicon"
      style="fill: #f1e05a;" 
      viewBox="0 0 16 16" 
      version="1.1" 
      width="16" 
      height="16"
  ><path 
      fill-rule="evenodd" 
      d="M8 4a4 4 0 100 8 4 4 0 000-8z"
  ></path></svg>
  <span class="lang">JavaScript</span>
  <span class="percent">3.12%</span>
</li>
<li style="animation-delay: 1200ms;">
  <svg 
      xmlns="http://www.w3.org/2000/svg" 
      class="octicon"
      style="fill: #89e051;" 
      viewBox="0 0 16 16" 
      version="1.1" 
      width="16" 
      height="16"
  ><path 
      fill-rule="evenodd" 
      d="M8 4a4 4 0 100 8 4 4 0 000-8z"
  ></path></svg>
  <span class="lang">Shell</span>
  <span class="percent">2.46%</span>
</li>
<li style="animation-delay: 1350ms;">
  <svg 
      xmlns="http://www.w3.org/2000/svg" 
      class="octicon"
      style="fill: #f34b7d;" 
      viewBox="0 0 16 16" 
      version="1.1" 
      width="16" 
      height="16"
  ><path 
      fill-rule="evenodd" 
      d="M8 4a4 4 0 100 8 4 4 0 000-8z"
  ></path></svg>
  <span class="lang">C++</span>
  <span class="percent">0.54%</span>
</li>
<li style="animation-delay: 1500ms;">
  <svg 
      xmlns="http://www.w3.org/2000/svg" 
      class="octicon"
      style="fill: #3572A5;" 
      viewBox="0 0 16 16" 
      version="1.1" 
      width="16" 
      height="16"
  ><path 
      fill-rule="evenodd" 
      d="M8 4a4 4 0 100 8 4 4 0 000-8z"
  ></path></svg>
  <span class="lang">Python</span>
  <span class="percent">0.48%</span>
</li>
<li style="animation-delay: 1650ms;">
  <svg 
      xmlns="http://www.w3.org/2000/svg" 
      class="octicon"
      style="fill: #DA3434;" 
      viewBox="0 0 16 16" 
      version="1.1" 
      width="16" 
      height="16"
  ><path 
      fill-rule="evenodd" 
      d="M8 4a4 4 0 100 8 4 4 0 000-8z"
  ></path></svg>
  <span class="lang">CMake</span>
  <span class="percent">0.33%</span>
</li>
<li style="animation-delay: 1800ms;">
  <svg 
      xmlns="http://www.w3.org/2000/svg" 
      class="octicon"
      style="fill: #41b883;" 
      viewBox="0 0 16 16" 
      version="1.1" 
      width="16" 
      height="16"
  ><path 
      fill-rule="evenodd" 
      d="M8 4a4 4 0 100 8 4 4 0 000-8z"
  ></path></svg>
  <span class="lang">Vue</span>
  <span class="percent">0.20%</span>
</li>
<li style="animation-delay: 1950ms;">
  <svg 
      xmlns="http://www.w3.org/2000/svg" 
      class="octicon"
      style="fill: #5686a5;" 
      viewBox="0 0 16 16" 
      version="1.1" 
      width="16" 
      height="16"
  ><path 
      fill-rule="evenodd" 
      d="M8 4a4 4 0 100 8 4 4 0 000-8z"
  ></path></svg>
  <span class="lang">GLSL</span>
  <span class="percent">0.11%</span>
</li>
<li style="animation-delay: 2100ms;">
  <svg 
      xmlns="http://www.w3.org/2000/svg" 
      class="octicon"
      style="fill: #fcb32c;" 
      viewBox="0 0 16 16" 
      version="1.1" 
      width="16" 
      height="16"
  ><path 
      fill-rule="evenodd" 
      d="M8 4a4 4 0 100 8 4 4 0 000-8z"
  ></path></svg>
  <span class="lang">MDX</span>
  <span class="percent">0.11%</span>
</li>
<li style="animation-delay: 2250ms;">
  <svg 
      xmlns="http://www.w3.org/2000/svg" 
      class="octicon"
      style="fill: #478CBF;" 
      viewBox="0 0 16 16" 
      version="1.1" 
      width="16" 
      height="16"
  ><path 
      fill-rule="evenodd" 
      d="M8 4a4 4 0 100 8 4 4 0 000-8z"
  ></path></svg>
  <span class="lang">GDShader</span>
  <span class="percent">0.01%</span>
</li>


</ul>

</div>
</foreignObject>
<foreignObject systemLanguage="sv" x="21" y="17" width="406.3" height="176">
<div xmlns="http://www.w3.org/1999/xhtml" class="ellipsis">

<h2>15 Programmeringsspråk (av Linjebyten)</h2>

<div>
<span class="progress">
<span style="
  background-color: #ec915c; 
  width: 63.532%;
" class="progress-item"></span><span style="
  background-color: #7e7eff; 
  width: 7.354%;
" class="progress-item"></span><span style="
  background-color: #ff5a03; 
  width: 6.907%;
" class="progress-item"></span><span style="
  background-color: #b07219; 
  width: 6.561%;
" class="progress-item"></span><span style="
  background-color: #663399; 
  width: 4.155%;
" class="progress-item"></span><span style="
  background-color: #3178c6; 
  width: 4.135%;
" class="progress-item"></span><span style="
  background-color: #f1e05a; 
  width: 3.121%;
" class="progress-item"></span><span style="
  background-color: #89e051; 
  width: 2.465%;
" class="progress-item"></span><span style="
  background-color: #f34b7d; 
  width: 0.539%;
" class="progress-item"></span><span style="
  background-color: #3572A5; 
  width: 0.478%;
" class="progress-item"></span><span style="
  background-color: #DA3434; 
  width: 0.325%;
" class="progress-item"></span><span style="
  background-color: #41b883; 
  width: 0.202%;
" class="progress-item"></span><span style="
  background-color: #5686a5; 
  width: 0.108%;
" class="progress-item"></span><span style="
  background-color: #fcb32c; 
  width: 0.107%;
" class="progress-item"></span><span style="
  background-color: #478CBF; 
  width: 0.010%;
" class="progress-item"></span>
</span>
</div>

<ul>

<li style="animation-delay: 150ms;">
  <svg 
      xmlns="http://www.w3.org/2000/svg" 
      class="octicon"
      style="fill: #ec915c;" 
      viewBox="0 0 16 16" 
      version="1.1" 
      width="16" 
      height="16"
  ><path 
      fill-rule="evenodd" 
      d="M8 4a4 4 0 100 8 4 4 0 000-8z"
  ></path></svg>
  <span class="lang">Zig</span>
  <span class="percent">63.53%</span>
</li>
<li style="animation-delay: 300ms;">
  <svg 
      xmlns="http://www.w3.org/2000/svg" 
      class="octicon"
      style="fill: #7e7eff;" 
      viewBox="0 0 16 16" 
      version="1.1" 
      width="16" 
      height="16"
  ><path 
      fill-rule="evenodd" 
      d="M8 4a4 4 0 100 8 4 4 0 000-8z"
  ></path></svg>
  <span class="lang">Nix</span>
  <span class="percent">7.35%</span>
</li>
<li style="animation-delay: 450ms;">
  <svg 
      xmlns="http://www.w3.org/2000/svg" 
      class="octicon"
      style="fill: #ff5a03;" 
      viewBox="0 0 16 16" 
      version="1.1" 
      width="16" 
      height="16"
  ><path 
      fill-rule="evenodd" 
      d="M8 4a4 4 0 100 8 4 4 0 000-8z"
  ></path></svg>
  <span class="lang">Astro</span>
  <span class="percent">6.91%</span>
</li>
<li style="animation-delay: 600ms;">
  <svg 
      xmlns="http://www.w3.org/2000/svg" 
      class="octicon"
      style="fill: #b07219;" 
      viewBox="0 0 16 16" 
      version="1.1" 
      width="16" 
      height="16"
  ><path 
      fill-rule="evenodd" 
      d="M8 4a4 4 0 100 8 4 4 0 000-8z"
  ></path></svg>
  <span class="lang">Java</span>
  <span class="percent">6.56%</span>
</li>
<li style="animation-delay: 750ms;">
  <svg 
      xmlns="http://www.w3.org/2000/svg" 
      class="octicon"
      style="fill: #663399;" 
      viewBox="0 0 16 16" 
      version="1.1" 
      width="16" 
      height="16"
  ><path 
      fill-rule="evenodd" 
      d="M8 4a4 4 0 100 8 4 4 0 000-8z"
  ></path></svg>
  <span class="lang">CSS</span>
  <span class="percent">4.15%</span>
</li>
<li style="animation-delay: 900ms;">
  <svg 
      xmlns="http://www.w3.org/2000/svg" 
      class="octicon"
      style="fill: #3178c6;" 
      viewBox="0 0 16 16" 
      version="1.1" 
      width="16" 
      height="16"
  ><path 
      fill-rule="evenodd" 
      d="M8 4a4 4 0 100 8 4 4 0 000-8z"
  ></path></svg>
  <span class="lang">TypeScript</span>
  <span class="percent">4.14%</span>
</li>
<li style="animation-delay: 1050ms;">
  <svg 
      xmlns="http://www.w3.org/2000/svg" 
      class="octicon"
      style="fill: #f1e05a;" 
      viewBox="0 0 16 16" 
      version="1.1" 
      width="16" 
      height="16"
  ><path 
      fill-rule="evenodd" 
      d="M8 4a4 4 0 100 8 4 4 0 000-8z"
  ></path></svg>
  <span class="lang">JavaScript</span>
  <span class="percent">3.12%</span>
</li>
<li style="animation-delay: 1200ms;">
  <svg 
      xmlns="http://www.w3.org/2000/svg" 
      class="octicon"
      style="fill: #89e051;" 
      viewBox="0 0 16 16" 
      version="1.1" 
      width="16" 
      height="16"
  ><path 
      fill-rule="evenodd" 
      d="M8 4a4 4 0 100 8 4 4 0 000-8z"
  ></path></svg>
  <span class="lang">Shell</span>
  <span class="percent">2.46%</span>
</li>
<li style="animation-delay: 1350ms;">
  <svg 
      xmlns="http://www.w3.org/2000/svg" 
      class="octicon"
      style="fill: #f34b7d;" 
      viewBox="0 0 16 16" 
      version="1.1" 
      width="16" 
      height="16"
  ><path 
      fill-rule="evenodd" 
      d="M8 4a4 4 0 100 8 4 4 0 000-8z"
  ></path></svg>
  <span class="lang">C++</span>
  <span class="percent">0.54%</span>
</li>
<li style="animation-delay: 1500ms;">
  <svg 
      xmlns="http://www.w3.org/2000/svg" 
      class="octicon"
      style="fill: #3572A5;" 
      viewBox="0 0 16 16" 
      version="1.1" 
      width="16" 
      height="16"
  ><path 
      fill-rule="evenodd" 
      d="M8 4a4 4 0 100 8 4 4 0 000-8z"
  ></path></svg>
  <span class="lang">Python</span>
  <span class="percent">0.48%</span>
</li>
<li style="animation-delay: 1650ms;">
  <svg 
      xmlns="http://www.w3.org/2000/svg" 
      class="octicon"
      style="fill: #DA3434;" 
      viewBox="0 0 16 16" 
      version="1.1" 
      width="16" 
      height="16"
  ><path 
      fill-rule="evenodd" 
      d="M8 4a4 4 0 100 8 4 4 0 000-8z"
  ></path></svg>
  <span class="lang">CMake</span>
  <span class="percent">0.33%</span>
</li>
<li style="animation-delay: 1800ms;">
  <svg 
      xmlns="http://www.w3.org/2000/svg" 
      class="octicon"
      style="fill: #41b883;" 
      viewBox="0 0 16 16" 
      version="1.1" 
      width="16" 
      height="16"
  ><path 
      fill-rule="evenodd" 
      d="M8 4a4 4 0 100 8 4 4 0 000-8z"
  ></path></svg>
  <span class="lang">Vue</span>
  <span class="percent">0.20%</span>
</li>
<li style="animation-delay: 1950ms;">
  <svg 
      xmlns="http://www.w3.org/2000/svg" 
      class="octicon"
      style="fill: #5686a5;" 
      viewBox="0 0 16 16" 
      version="1.1" 
      width="16" 
      height="16"
  ><path 
      fill-rule="evenodd" 
      d="M8 4a4 4 0 100 8 4 4 0 000-8z"
  ></path></svg>
  <span class="lang">GLSL</span>
  <span class="percent">0.11%</span>
</li>
<li style="animation-delay: 2100ms;">
  <svg 
      xmlns="http://www.w3.org/2000/svg" 
      class="octicon"
      style="fill: #fcb32c;" 
      viewBox="0 0 16 16" 
      version="1.1" 
      width="16" 
      height="16"
  ><path 
      fill-rule="evenodd" 
      d="M8 4a4 4 0 100 8 4 4 0 000-8z"
  ></path></svg>
  <span class="lang">MDX</span>
  <span class="percent">0.11%</span>
</li>
<li style="animation-delay: 2250ms;">
  <svg 
      xmlns="http://www.w3.org/2000/svg" 
      class="octicon"
      style="fill: #478CBF;" 
      viewBox="0 0 16 16" 
      version="1.1" 
      width="16" 
      height="16"
  ><path 
      fill-rule="evenodd" 
      d="M8 4a4 4 0 100 8 4 4 0 000-8z"
  ></path></svg>
  <span class="lang">GDShader</span>
  <span class="percent">0.01%</span>
</li>


</ul>

</div>
</foreignObject>
<foreignObject x="21" y="17" width="406.3" height="176">
<div xmlns="http://www.w3.org/1999/xhtml" class="ellipsis">

<h2>15 Languages (by Line Changes)</h2>

<div>
<span class="progress">
<span style="
  background-color: #ec915c; 
  width: 63.532%;
" class="progress-item"></span><span style="
  background-color: #7e7eff; 
  width: 7.354%;
" class="progress-item"></span><span style="
  background-color: #ff5a03; 
  width: 6.907%;
" class="progress-item"></span><span style="
  background-color: #b07219; 
  width: 6.561%;
" class="progress-item"></span><span style="
  background-color: #663399; 
  width: 4.155%;
" class="progress-item"></span><span style="
  background-color: #3178c6; 
  width: 4.135%;
" class="progress-item"></span><span style="
  background-color: #f1e05a; 
  width: 3.121%;
" class="progress-item"></span><span style="
  background-color: #89e051; 
  width: 2.465%;
" class="progress-item"></span><span style="
  background-color: #f34b7d; 
  width: 0.539%;
" class="progress-item"></span><span style="
  background-color: #3572A5; 
  width: 0.478%;
" class="progress-item"></span><span style="
  background-color: #DA3434; 
  width: 0.325%;
" class="progress-item"></span><span style="
  background-color: #41b883; 
  width: 0.202%;
" class="progress-item"></span><span style="
  background-color: #5686a5; 
  width: 0.108%;
" class="progress-item"></span><span style="
  background-color: #fcb32c; 
  width: 0.107%;
" class="progress-item"></span><span style="
  background-color: #478CBF; 
  width: 0.010%;
" class="progress-item"></span>
</span>
</div>

<ul>

<li style="animation-delay: 150ms;">
  <svg 
      xmlns="http://www.w3.org/2000/svg" 
      class="octicon"
      style="fill: #ec915c;" 
      viewBox="0 0 16 16" 
      version="1.1" 
      width="16" 
      height="16"
  ><path 
      fill-rule="evenodd" 
      d="M8 4a4 4 0 100 8 4 4 0 000-8z"
  ></path></svg>
  <span class="lang">Zig</span>
  <span class="percent">63.53%</span>
</li>
<li style="animation-delay: 300ms;">
  <svg 
      xmlns="http://www.w3.org/2000/svg" 
      class="octicon"
      style="fill: #7e7eff;" 
      viewBox="0 0 16 16" 
      version="1.1" 
      width="16" 
      height="16"
  ><path 
      fill-rule="evenodd" 
      d="M8 4a4 4 0 100 8 4 4 0 000-8z"
  ></path></svg>
  <span class="lang">Nix</span>
  <span class="percent">7.35%</span>
</li>
<li style="animation-delay: 450ms;">
  <svg 
      xmlns="http://www.w3.org/2000/svg" 
      class="octicon"
      style="fill: #ff5a03;" 
      viewBox="0 0 16 16" 
      version="1.1" 
      width="16" 
      height="16"
  ><path 
      fill-rule="evenodd" 
      d="M8 4a4 4 0 100 8 4 4 0 000-8z"
  ></path></svg>
  <span class="lang">Astro</span>
  <span class="percent">6.91%</span>
</li>
<li style="animation-delay: 600ms;">
  <svg 
      xmlns="http://www.w3.org/2000/svg" 
      class="octicon"
      style="fill: #b07219;" 
      viewBox="0 0 16 16" 
      version="1.1" 
      width="16" 
      height="16"
  ><path 
      fill-rule="evenodd" 
      d="M8 4a4 4 0 100 8 4 4 0 000-8z"
  ></path></svg>
  <span class="lang">Java</span>
  <span class="percent">6.56%</span>
</li>
<li style="animation-delay: 750ms;">
  <svg 
      xmlns="http://www.w3.org/2000/svg" 
      class="octicon"
      style="fill: #663399;" 
      viewBox="0 0 16 16" 
      version="1.1" 
      width="16" 
      height="16"
  ><path 
      fill-rule="evenodd" 
      d="M8 4a4 4 0 100 8 4 4 0 000-8z"
  ></path></svg>
  <span class="lang">CSS</span>
  <span class="percent">4.15%</span>
</li>
<li style="animation-delay: 900ms;">
  <svg 
      xmlns="http://www.w3.org/2000/svg" 
      class="octicon"
      style="fill: #3178c6;" 
      viewBox="0 0 16 16" 
      version="1.1" 
      width="16" 
      height="16"
  ><path 
      fill-rule="evenodd" 
      d="M8 4a4 4 0 100 8 4 4 0 000-8z"
  ></path></svg>
  <span class="lang">TypeScript</span>
  <span class="percent">4.14%</span>
</li>
<li style="animation-delay: 1050ms;">
  <svg 
      xmlns="http://www.w3.org/2000/svg" 
      class="octicon"
      style="fill: #f1e05a;" 
      viewBox="0 0 16 16" 
      version="1.1" 
      width="16" 
      height="16"
  ><path 
      fill-rule="evenodd" 
      d="M8 4a4 4 0 100 8 4 4 0 000-8z"
  ></path></svg>
  <span class="lang">JavaScript</span>
  <span class="percent">3.12%</span>
</li>
<li style="animation-delay: 1200ms;">
  <svg 
      xmlns="http://www.w3.org/2000/svg" 
      class="octicon"
      style="fill: #89e051;" 
      viewBox="0 0 16 16" 
      version="1.1" 
      width="16" 
      height="16"
  ><path 
      fill-rule="evenodd" 
      d="M8 4a4 4 0 100 8 4 4 0 000-8z"
  ></path></svg>
  <span class="lang">Shell</span>
  <span class="percent">2.46%</span>
</li>
<li style="animation-delay: 1350ms;">
  <svg 
      xmlns="http://www.w3.org/2000/svg" 
      class="octicon"
      style="fill: #f34b7d;" 
      viewBox="0 0 16 16" 
      version="1.1" 
      width="16" 
      height="16"
  ><path 
      fill-rule="evenodd" 
      d="M8 4a4 4 0 100 8 4 4 0 000-8z"
  ></path></svg>
  <span class="lang">C++</span>
  <span class="percent">0.54%</span>
</li>
<li style="animation-delay: 1500ms;">
  <svg 
      xmlns="http://www.w3.org/2000/svg" 
      class="octicon"
      style="fill: #3572A5;" 
      viewBox="0 0 16 16" 
      version="1.1" 
      width="16" 
      height="16"
  ><path 
      fill-rule="evenodd" 
      d="M8 4a4 4 0 100 8 4 4 0 000-8z"
  ></path></svg>
  <span class="lang">Python</span>
  <span class="percent">0.48%</span>
</li>
<li style="animation-delay: 1650ms;">
  <svg 
      xmlns="http://www.w3.org/2000/svg" 
      class="octicon"
      style="fill: #DA3434;" 
      viewBox="0 0 16 16" 
      version="1.1" 
      width="16" 
      height="16"
  ><path 
      fill-rule="evenodd" 
      d="M8 4a4 4 0 100 8 4 4 0 000-8z"
  ></path></svg>
  <span class="lang">CMake</span>
  <span class="percent">0.33%</span>
</li>
<li style="animation-delay: 1800ms;">
  <svg 
      xmlns="http://www.w3.org/2000/svg" 
      class="octicon"
      style="fill: #41b883;" 
      viewBox="0 0 16 16" 
      version="1.1" 
      width="16" 
      height="16"
  ><path 
      fill-rule="evenodd" 
      d="M8 4a4 4 0 100 8 4 4 0 000-8z"
  ></path></svg>
  <span class="lang">Vue</span>
  <span class="percent">0.20%</span>
</li>
<li style="animation-delay: 1950ms;">
  <svg 
      xmlns="http://www.w3.org/2000/svg" 
      class="octicon"
      style="fill: #5686a5;" 
      viewBox="0 0 16 16" 
      version="1.1" 
      width="16" 
      height="16"
  ><path 
      fill-rule="evenodd" 
      d="M8 4a4 4 0 100 8 4 4 0 000-8z"
  ></path></svg>
  <span class="lang">GLSL</span>
  <span class="percent">0.11%</span>
</li>
<li style="animation-delay: 2100ms;">
  <svg 
      xmlns="http://www.w3.org/2000/svg" 
      class="octicon"
      style="fill: #fcb32c;" 
      viewBox="0 0 16 16" 
      version="1.1" 
      width="16" 
      height="16"
  ><path 
      fill-rule="evenodd" 
      d="M8 4a4 4 0 100 8 4 4 0 000-8z"
  ></path></svg>
  <span class="lang">MDX</span>
  <span class="percent">0.11%</span>
</li>
<li style="animation-delay: 2250ms;">
  <svg 
      xmlns="http://www.w3.org/2000/svg" 
      class="octicon"
      style="fill: #478CBF;" 
      viewBox="0 0 16 16" 
      version="1.1" 
      width="16" 
      height="16"
  ><path 
      fill-rule="evenodd" 
      d="M8 4a4 4 0 100 8 4 4 0 000-8z"
  ></path></svg>
  <span class="lang">GDShader</span>
  <span class="percent">0.01%</span>
</li>


</ul>

</div>
</foreignObject>

</switch>
</g>
</g>
</svg>
